<?xml version="1.0" encoding="utf-8"?>
<!-- Generator: Adobe Illustrator 22.1.0, SVG Export Plug-In . SVG Version: 6.00 Build 0)  -->
<svg version="1.1" id="图层_1" xmlns="http://www.w3.org/2000/svg" xmlns:xlink="http://www.w3.org/1999/xlink" x="0px" y="0px"
	 viewBox="0 0 128 128" style="enable-background:new 0 0 128 128;" xml:space="preserve">
<style type="text/css">
	.st0{fill:#78B94B;}
</style>
<g>
	<g>
		<path class="st0" d="M-110,0.5c-35.1,0-63.5,28.4-63.5,63.5s28.4,63.5,63.5,63.5S-46.5,99.1-46.5,64S-74.9,0.5-110,0.5z
			 M-75.6,80.8c-1.1,4.9-2.9,9.5-5.4,13.7c-6.3,10.9-16.6,19.2-28.9,23c-21-5.8-36.5-24.9-36.8-47.7c0-3.4,0.2-6.7,0.9-10
			c0.5-2.5,1.2-5.1,2-7.4c0.5-1.4,1-2.7,1.6-4c3,0.9,6.2,1.6,9.4,1.8c1-0.1,1.9-0.1,2.9-0.1c12.2-0.1,23-5.9,30.1-14.7
			c7.2,1,13.8,4.1,18.8,8.9c1.5,2.5,2.7,5.2,3.7,8c1.9,5.1,3,10.7,3.1,16.5C-74.2,72.9-74.7,76.9-75.6,80.8z M-69.8,52.5
			c-0.5,0-1-0.3-1.3-0.7c-0.1-0.2-0.1-0.4-0.2-0.6c-1.5-4.6-3.9-8.8-7.1-12.3c-1-1.2-2.1-2.2-3.3-3.2c-5.3-4.5-11.9-7.4-19.2-8
			c-6.7,9.1-17.2,15.4-29.4,16c-0.9,0.1-1.9,0-2.8,0c-3.2-0.1-6.5-0.5-9.5-1.4c-0.4-0.1-0.7-0.2-1.1-0.3c-0.3-0.1-0.6-0.2-1-0.3
			c-3.5-1.1-6.8-2.8-9.9-5c-0.1-0.1-0.3-0.2-0.4-0.3c-0.3-0.3-0.4-0.6-0.4-0.9c-0.1-0.8,0.6-1.4,1.4-1.5c0.1,0,0.3,0,0.4,0.1
			l0.2,0.1c3.4,1,6.9,1.7,10.6,1.9c1.1-2.5,2.4-5,4-7.3c0,0,0,0,0-0.1c3.9-5.6,9.3-10.1,15.8-13c2.4-1,5-1.9,7.6-2.5
			c2-0.4,4.1-0.8,6.2-0.9c0.5,0,1-0.1,1.6,0c2.5,0,4.9,0.1,7.2,0.6c1.9,0.3,3.9,0.8,5.7,1.5c14.7,5,25.4,18.3,26.2,34.6
			c0,0.5,0,1.2,0,1.8l0,0.3C-68.6,51.9-69.2,52.5-69.8,52.5z"/>
	</g>
</g>
<g>
	<g>
		<path class="st0" d="M0,0v128h128V0H0z M64,127.5C28.9,127.5,0.5,99.1,0.5,64S28.9,0.5,64,0.5s63.5,28.4,63.5,63.5
			S99.1,127.5,64,127.5z"/>
	</g>
</g>
<g>
	<path class="st0" d="M98.4,80.8c-1.1,4.9-2.9,9.5-5.4,13.7c-6.3,10.9-16.6,19.2-28.9,23c-21-5.8-36.5-24.9-36.8-47.7
		c0-3.4,0.2-6.7,0.9-10c0.5-2.5,1.2-5.1,2-7.4c0.5-1.4,1-2.7,1.6-4c3,0.9,6.2,1.6,9.4,1.8c1-0.1,1.9-0.1,2.9-0.1
		c12.2-0.1,23-5.9,30.1-14.7c7.2,1,13.8,4.1,18.8,8.9c1.5,2.5,2.7,5.2,3.7,8c1.9,5.1,3,10.7,3.1,16.5C99.8,72.9,99.3,76.9,98.4,80.8
		z"/>
	<path class="st0" d="M105.5,51c0,0.1,0,0.2,0,0.3c-0.1,0.6-0.7,1.2-1.3,1.2c-0.5,0-1-0.3-1.3-0.7c-0.1-0.2-0.1-0.4-0.2-0.6
		c-1.5-4.6-3.9-8.8-7.1-12.3c-1-1.2-2.1-2.2-3.3-3.2c-5.3-4.5-11.9-7.4-19.2-8c-6.7,9.1-17.2,15.4-29.4,16c-0.9,0.1-1.9,0-2.8,0
		c-3.2-0.1-6.5-0.5-9.5-1.4c-0.4-0.1-0.7-0.2-1.1-0.3c-0.3-0.1-0.6-0.2-1-0.3c-3.5-1.1-6.8-2.8-9.9-5c-0.1-0.1-0.3-0.2-0.4-0.3
		c-0.3-0.3-0.4-0.6-0.4-0.9c-0.1-0.8,0.6-1.4,1.4-1.5c0.1,0,0.3,0,0.4,0.1l0.2,0.1c3.4,1,6.9,1.7,10.6,1.9c1.1-2.5,2.4-5,4-7.3
		c0,0,0,0,0-0.1c3.9-5.6,9.3-10.1,15.8-13c2.4-1,5-1.9,7.6-2.5c2-0.4,4.1-0.8,6.2-0.9c0.5,0,1-0.1,1.6,0c2.5,0,4.9,0.1,7.2,0.6
		c1.9,0.3,3.9,0.8,5.7,1.5c14.7,5,25.4,18.3,26.2,34.6C105.4,49.7,105.5,50.4,105.5,51z"/>
</g>
</svg>
